<svg width="20" height="20" viewBox="0 0 20 20" fill="none" xmlns="http://www.w3.org/2000/svg">
<path fill-rule="evenodd" clip-rule="evenodd" d="M13.3626 17.931H14.2036C14.5496 17.931 14.8308 18.2145 14.8308 18.5631V19.3679C14.8308 19.7166 14.5496 20 14.2036 20H5.8772C5.53127 20 5.25 19.7166 5.25 19.3679V18.5631C5.25 18.2145 5.53127 17.931 5.8772 17.931H6.71792L7.17677 16.6059C7.29038 16.2034 7.75539 15.9293 8.17626 15.8738L8.72853 15.3172C8.82057 15.2245 8.83939 15.0803 8.77472 14.9669C8.23101 14.0103 8.41784 12.7141 8.57797 12.0266C8.60056 11.9283 8.57455 11.8241 8.51091 11.7617C7.54872 10.8179 7.98225 9.27828 8.00107 9.21345L8.01681 9.17035C8.07087 9.04759 8.10749 8.90897 8.12562 8.75724C8.19337 8.19345 7.8618 7.71138 7.65821 7.47414C6.87156 6.55793 7.03854 5.00241 7.20825 4.15621C7.28661 3.76586 7.57233 3.45552 7.95419 3.34552L9.13366 3.00586C8.8524 2.69 8.67173 2.23517 8.67173 1.72414C8.67173 0.773448 9.28559 0 10.0404 0C10.7953 0 11.4091 0.773448 11.4091 1.72414C11.4091 2.23517 11.2284 2.69 10.9472 3.00586L12.127 3.34552C12.5085 3.45552 12.7942 3.76586 12.8726 4.15621C13.0423 5.00241 13.2093 6.55793 12.4226 7.47414C12.219 7.71138 11.8875 8.19345 11.9552 8.75724C11.9734 8.90897 12.01 9.04759 12.064 9.17035L12.0794 9.21345C12.0986 9.27828 12.5321 10.8179 11.5699 11.7617C11.5063 11.8241 11.4799 11.9283 11.5029 12.0266C11.663 12.7141 11.8498 14.0103 11.3061 14.9669C11.2414 15.0803 11.2603 15.2245 11.3523 15.3172L11.9046 15.8738C12.3254 15.9297 12.7911 16.2055 12.9099 16.6248L13.3626 17.931ZM8.32956 16.5517C8.11809 16.5517 7.85975 16.7041 7.82896 16.8141L7.44264 17.931H12.6382L12.2577 16.8328C12.2211 16.7041 11.9627 16.5517 11.7513 16.5517H8.32956Z" fill="#ABBBCC"/>
</svg>
